<?xml version="1.0" standalone="no"?>
<!DOCTYPE svg PUBLIC "-//W3C//DTD SVG 20010904//EN"
 "http://www.w3.org/TR/2001/REC-SVG-20010904/DTD/svg10.dtd">
<svg version="1.0" xmlns="http://www.w3.org/2000/svg"
 width="273.000000pt" height="273.000000pt" viewBox="0 0 273.000000 273.000000"
 preserveAspectRatio="xMidYMid meet">
<metadata>
Created by potrace 1.14, written by Peter Selinger 2001-2017
</metadata>
<g transform="translate(0.000000,273.000000) scale(0.100000,-0.100000)"
fill="#000000" stroke="none">
<path d="M1306 2592 c-2 -4 -4 -29 -4 -55 0 -33 3 -45 11 -41 7 4 4 -2 -6 -12
-14 -15 -29 -18 -78 -16 l-61 3 2 -33 c1 -18 2 -48 1 -65 l-1 -33 -64 0 -64 0
-1 -164 c0 -91 -1 -168 -2 -173 -1 -4 -1 -12 0 -18 3 -13 3 -96 0 -207 l-1
-88 -32 0 c-18 0 -38 -6 -45 -12 -10 -11 -11 -9 -5 6 6 16 4 17 -13 8 -11 -6
-23 -8 -27 -5 -3 3 -6 -23 -6 -58 0 -54 -3 -66 -21 -77 -13 -8 -18 -9 -14 -2
5 8 -8 10 -45 9 l-51 -3 2 -67 c2 -54 5 -67 15 -61 8 4 37 5 66 2 50 -5 53 -7
50 -30 -5 -31 -5 -28 -3 -67 l1 -33 66 0 66 0 -3 -34 c-2 -19 -1 -38 2 -41 4
-3 4 -17 1 -30 -5 -26 -9 -27 -94 -27 -38 0 -38 0 -38 -40 0 -34 3 -39 18 -34
16 6 16 5 0 -8 -10 -7 -18 -21 -18 -30 0 -13 -11 -16 -65 -16 l-65 0 0 -130 0
-130 -65 0 -65 0 0 -64 0 -64 -48 0 c-27 -1 -55 -2 -63 -4 -12 -3 -14 38 -16
258 l-2 260 61 2 c33 1 62 3 63 4 6 6 7 37 6 145 l-1 113 -60 -2 c-32 -1 -62
1 -65 4 -4 4 -7 34 -7 67 l-1 61 -128 0 -129 0 0 -65 c0 -72 4 -69 -83 -66
l-47 2 0 -66 c0 -71 0 -71 -69 -65 -13 1 -28 -4 -32 -12 -7 -10 -9 -10 -9 0 0
6 -4 12 -10 12 -5 0 -10 -12 -10 -26 0 -24 2 -25 18 -13 16 13 16 12 1 -6 -14
-17 -17 -60 -18 -312 -2 -330 -11 -297 81 -294 l48 1 0 -130 0 -130 64 0 64 0
-1 -62 -1 -63 68 -3 68 -3 -4 -64 -3 -65 35 -1 c19 -1 49 -1 67 -1 29 -1 31
-3 35 -40 2 -22 1 -41 -3 -44 -4 -2 -5 -13 -2 -24 5 -19 17 -19 701 -19 522 0
700 3 711 12 12 9 13 9 7 0 -5 -10 17 -13 103 -13 78 0 111 4 114 13 4 9 6 9
6 0 1 -7 12 -13 26 -13 l24 0 2 298 c0 163 1 309 0 323 -1 22 4 27 28 31 15 2
37 1 47 -2 10 -4 27 -5 37 -2 16 4 18 15 17 101 -4 204 -1 263 13 255 10 -6
10 -4 0 7 -23 24 -14 30 47 28 33 -1 62 0 65 3 3 2 5 32 6 66 l2 61 63 -2 64
-2 1 95 c1 52 1 127 1 165 -1 39 -1 95 -1 125 0 30 -1 64 -1 75 0 11 0 29 0
41 0 18 -7 21 -48 22 -26 0 -55 0 -64 1 -17 1 -18 26 -18 372 0 293 -3 369
-12 363 -10 -6 -10 -4 0 7 25 27 13 36 -49 37 -33 0 -63 3 -67 6 -3 4 -5 33
-4 66 l1 59 -64 0 -65 -1 0 -62 0 -63 -52 -2 c-29 -2 -59 -3 -65 -4 -11 0 -18
-24 -15 -48 1 -4 3 -23 5 -43 l4 -36 -68 0 -69 0 0 -64 0 -65 -107 -3 c-161
-5 -153 -8 -153 67 l0 64 -67 3 -68 3 3 63 2 64 -42 -2 c-93 -4 -88 -7 -88 65
l0 65 -59 0 c-33 0 -62 -3 -65 -8z m109 -22 c3 -6 -1 -7 -9 -4 -18 7 -21 14
-7 14 6 0 13 -4 16 -10z m869 1 c-8 -8 -34 -10 -38 -2 -3 4 6 7 19 7 14 0 22
-2 19 -5z m3 -36 c0 -8 -4 -12 -9 -9 -5 3 -6 10 -3 15 9 13 12 11 12 -6z
m-877 -45 c0 -5 -2 -10 -4 -10 -3 0 -8 5 -11 10 -3 6 -1 10 4 10 6 0 11 -4 11
-10z m773 -45 c4 -8 3 -16 -1 -19 -4 -3 -9 4 -9 15 -2 23 3 25 10 4z m-76 -10
c0 -8 -4 -12 -9 -9 -5 3 -6 10 -3 15 9 13 12 11 12 -6z m-903 -35 c-6 -6 -10
-3 -10 10 0 13 4 16 10 10 7 -7 7 -13 0 -20z m50 8 c-3 -4 -9 -8 -15 -8 -5 0
-9 4 -9 8 0 5 7 9 15 9 8 0 12 -4 9 -9z m253 -7 c0 -11 -5 -18 -9 -15 -4 3 -5
11 -1 19 7 21 12 19 10 -4z m638 -10 c3 -5 2 -12 -3 -15 -5 -3 -9 1 -9 9 0 17
3 19 12 6z m285 5 c0 -3 -4 -8 -10 -11 -5 -3 -10 -1 -10 4 0 6 5 11 10 11 6 0
10 -2 10 -4z m-1183 -31 c0 -8 -4 -12 -9 -9 -5 3 -6 10 -3 15 9 13 12 11 12
-6z m-44 -10 c-3 -9 -8 -14 -10 -11 -3 3 -2 9 2 15 9 16 15 13 8 -4z m427 -65
c0 -5 -2 -10 -4 -10 -3 0 -8 5 -11 10 -3 6 -1 10 4 10 6 0 11 -4 11 -10z
m-525 -20 c3 -5 1 -10 -4 -10 -6 0 -11 5 -11 10 0 6 2 10 4 10 3 0 8 -4 11
-10z m40 0 c3 -5 1 -10 -4 -10 -6 0 -11 5 -11 10 0 6 2 10 4 10 3 0 8 -4 11
-10z m449 2 c3 -5 -1 -9 -9 -9 -8 0 -12 4 -9 9 3 4 7 8 9 8 2 0 6 -4 9 -8z
m451 -1 c-9 -8 -36 -10 -30 -2 2 4 11 8 20 8 8 0 13 -3 10 -6z m-20 -30 c3 -5
2 -12 -3 -15 -5 -3 -9 1 -9 9 0 17 3 19 12 6z m-915 -5 c0 -3 -4 -8 -10 -11
-5 -3 -10 -1 -10 4 0 6 5 11 10 11 6 0 10 -2 10 -4z m-84 -571 c-1 -8 -5 -17
-8 -21 -5 -4 -4 16 1 34 3 9 9 -1 7 -13z m-56 -19 c0 -2 -6 -9 -14 -15 -11 -9
-16 -9 -22 0 -4 7 -3 9 4 5 6 -3 13 -2 17 4 6 10 15 14 15 6z m1535 -37 c1
-11 -1 -22 -5 -24 -3 -2 -6 9 -6 25 0 33 9 32 11 -1z m-2144 -86 c13 -16 12
-17 -3 -4 -10 7 -18 15 -18 17 0 8 8 3 21 -13z m49 7 c0 -5 -2 -10 -4 -10 -3
0 -8 5 -11 10 -3 6 -1 10 4 10 6 0 11 -4 11 -10z m31 -13 c-10 -9 -11 -8 -5 6
3 10 9 15 12 12 3 -3 0 -11 -7 -18z m133 -145 c3 -5 -1 -9 -9 -9 -8 0 -12 4
-9 9 3 4 7 8 9 8 2 0 6 -4 9 -8z m51 -2 c3 -5 1 -10 -4 -10 -6 0 -11 5 -11 10
0 6 2 10 4 10 3 0 8 -4 11 -10z m-400 -19 c-9 -8 -36 -10 -30 -2 2 4 11 8 20
8 8 0 13 -3 10 -6z m-131 -79 c2 -4 -4 -8 -14 -8 -10 0 -16 4 -14 8 3 4 9 8
14 8 5 0 11 -4 14 -8z m10 -72 c-6 -6 -10 -3 -10 10 0 13 4 16 10 10 7 -7 7
-13 0 -20z m-28 8 c3 -4 -1 -5 -10 -4 -8 1 -18 5 -22 8 -3 4 1 5 10 4 8 -1 18
-5 22 -8z m824 -272 c0 -2 -8 -10 -17 -17 -16 -13 -17 -12 -4 4 13 16 21 21
21 13z m-817 -201 c-3 -9 -8 -14 -10 -11 -3 3 -2 9 2 15 9 16 15 13 8 -4z
m624 0 c0 -8 -4 -15 -9 -15 -10 0 -11 14 -1 23 9 10 10 9 10 -8z m0 -41 c24
-4 27 -13 4 -11 -12 1 -30 10 -39 21 -16 20 -16 20 2 6 10 -8 25 -15 33 -16z
m58 18 c-3 -3 0 -11 6 -19 17 -20 5 -16 -14 5 -15 16 -15 19 -2 19 8 0 13 -3
10 -5z"/>
<path d="M2675 1490 c-3 -5 -1 -10 4 -10 6 0 11 5 11 10 0 6 -2 10 -4 10 -3 0
-8 -4 -11 -10z"/>
<path d="M2713 1395 c0 -8 4 -12 9 -9 5 3 6 10 3 15 -9 13 -12 11 -12 -6z"/>
<path d="M2679 1363 c-12 -16 -12 -17 2 -6 9 7 20 9 24 5 5 -4 5 -1 1 6 -9 16
-11 15 -27 -5z"/>
<path d="M785 1330 c-3 -6 1 -7 9 -4 18 7 21 14 7 14 -6 0 -13 -4 -16 -10z"/>
<path d="M2650 1309 c0 -5 5 -7 10 -4 6 3 10 8 10 11 0 2 -4 4 -10 4 -5 0 -10
-5 -10 -11z"/>
<path d="M1015 1270 c3 -5 8 -10 11 -10 2 0 4 5 4 10 0 6 -5 10 -11 10 -5 0
-7 -4 -4 -10z"/>
<path d="M975 1190 c-3 -5 -1 -10 4 -10 6 0 11 5 11 10 0 6 -2 10 -4 10 -3 0
-8 -4 -11 -10z"/>
<path d="M2435 979 c-4 -6 -5 -12 -2 -15 2 -3 7 2 10 11 7 17 1 20 -8 4z"/>
<path d="M2370 950 c0 -5 5 -10 11 -10 5 0 7 5 4 10 -3 6 -8 10 -11 10 -2 0
-4 -4 -4 -10z"/>
<path d="M2416 932 c-3 -5 1 -9 9 -9 8 0 12 4 9 9 -3 4 -7 8 -9 8 -2 0 -6 -4
-9 -8z"/>
<path d="M95 630 c3 -5 8 -10 11 -10 2 0 4 5 4 10 0 6 -5 10 -11 10 -5 0 -7
-4 -4 -10z"/>
<path d="M30 610 c0 -5 5 -10 11 -10 5 0 7 5 4 10 -3 6 -8 10 -11 10 -2 0 -4
-4 -4 -10z"/>
<path d="M95 590 c-3 -5 -1 -10 4 -10 6 0 11 5 11 10 0 6 -2 10 -4 10 -3 0 -8
-4 -11 -10z"/>
<path d="M2250 589 c0 -5 5 -7 10 -4 6 3 10 8 10 11 0 2 -4 4 -10 4 -5 0 -10
-5 -10 -11z"/>
<path d="M2225 550 c-3 -6 1 -7 9 -4 18 7 21 14 7 14 -6 0 -13 -4 -16 -10z"/>
<path d="M150 370 c0 -5 5 -10 11 -10 5 0 7 5 4 10 -3 6 -8 10 -11 10 -2 0 -4
-4 -4 -10z"/>
<path d="M190 369 c0 -5 5 -7 10 -4 6 3 10 8 10 11 0 2 -4 4 -10 4 -5 0 -10
-5 -10 -11z"/>
<path d="M396 88 c3 -5 10 -6 15 -3 13 9 11 12 -6 12 -8 0 -12 -4 -9 -9z"/>
<path d="M435 50 c-3 -5 -1 -10 4 -10 6 0 11 5 11 10 0 6 -2 10 -4 10 -3 0 -8
-4 -11 -10z"/>
</g>
</svg>
