<svg width="49" height="47" viewBox="0 0 49 47" fill="none" xmlns="http://www.w3.org/2000/svg">
<path d="M6.51999 3.61539L6.51999 4.50001L6.51999 42.6258L6.51999 43.3505L7.5 42.8695L47 23.483L7.5 4.09638L6.51999 3.61539Z" fill="#ffffff" />
<path d="M6.51999 3.61539L7.5 4.09638M6.51999 3.61539L1 0.999999L1 1.5L6.51999 4.50001M6.51999 3.61539L6.51999 4.50001M6.51999 43.3505L0.999997 46L0.999997 45.5L6.51999 42.6258M6.51999 43.3505L7.5 42.8695M6.51999 43.3505L6.51999 42.6258M7.5 4.09638L47 23.483L7.5 42.8695M7.5 4.09638L7.5 42.8695M6.51999 42.6258L6.51999 4.50001" stroke="#916DB8"/>
</svg>
